<svg xmlns="http://www.w3.org/2000/svg" xmlns:xlink="http://www.w3.org/1999/xlink" width="500" zoomAndPan="magnify" viewBox="0 0 375 374.999991" height="500" preserveAspectRatio="xMidYMid meet" version="1.0"><defs><clipPath id="3a8f7544d3"><path d="M 9.585938 9.585938 L 365.414062 9.585938 L 365.414062 365.414062 L 9.585938 365.414062 Z M 9.585938 9.585938 " clip-rule="nonzero"/></clipPath><clipPath id="4aeda81b98"><path d="M 26.835938 9.585938 L 348.164062 9.585938 C 357.691406 9.585938 365.414062 17.308594 365.414062 26.835938 L 365.414062 348.164062 C 365.414062 357.691406 357.691406 365.414062 348.164062 365.414062 L 26.835938 365.414062 C 17.308594 365.414062 9.585938 357.691406 9.585938 348.164062 L 9.585938 26.835938 C 9.585938 17.308594 17.308594 9.585938 26.835938 9.585938 Z M 26.835938 9.585938 " clip-rule="nonzero"/></clipPath><clipPath id="8b2ba31295"><path d="M 37.398438 37.398438 L 112.277344 37.398438 L 112.277344 112.277344 L 37.398438 112.277344 Z M 37.398438 37.398438 " clip-rule="nonzero"/></clipPath><clipPath id="bf948113da"><path d="M 74.839844 37.398438 C 54.160156 37.398438 37.398438 54.160156 37.398438 74.839844 C 37.398438 95.515625 54.160156 112.277344 74.839844 112.277344 C 95.515625 112.277344 112.277344 95.515625 112.277344 74.839844 C 112.277344 54.160156 95.515625 37.398438 74.839844 37.398438 Z M 74.839844 37.398438 " clip-rule="nonzero"/></clipPath><clipPath id="7c104c2137"><path d="M 37.398438 262.722656 L 112.277344 262.722656 L 112.277344 337.601562 L 37.398438 337.601562 Z M 37.398438 262.722656 " clip-rule="nonzero"/></clipPath><clipPath id="45c06152a7"><path d="M 74.839844 262.722656 C 54.160156 262.722656 37.398438 279.484375 37.398438 300.160156 C 37.398438 320.839844 54.160156 337.601562 74.839844 337.601562 C 95.515625 337.601562 112.277344 320.839844 112.277344 300.160156 C 112.277344 279.484375 95.515625 262.722656 74.839844 262.722656 Z M 74.839844 262.722656 " clip-rule="nonzero"/></clipPath><clipPath id="400810ea0d"><path d="M 262.722656 265.554688 L 337.601562 265.554688 L 337.601562 340.433594 L 262.722656 340.433594 Z M 262.722656 265.554688 " clip-rule="nonzero"/></clipPath><clipPath id="e0a1263935"><path d="M 300.160156 265.554688 C 279.484375 265.554688 262.722656 282.316406 262.722656 302.992188 C 262.722656 323.671875 279.484375 340.433594 300.160156 340.433594 C 320.839844 340.433594 337.601562 323.671875 337.601562 302.992188 C 337.601562 282.316406 320.839844 265.554688 300.160156 265.554688 Z M 300.160156 265.554688 " clip-rule="nonzero"/></clipPath><clipPath id="cc6df2a696"><path d="M 262.722656 37.398438 L 337.601562 37.398438 L 337.601562 112.277344 L 262.722656 112.277344 Z M 262.722656 37.398438 " clip-rule="nonzero"/></clipPath><clipPath id="f9c9d77f6b"><path d="M 300.160156 37.398438 C 279.484375 37.398438 262.722656 54.160156 262.722656 74.839844 C 262.722656 95.515625 279.484375 112.277344 300.160156 112.277344 C 320.839844 112.277344 337.601562 95.515625 337.601562 74.839844 C 337.601562 54.160156 320.839844 37.398438 300.160156 37.398438 Z M 300.160156 37.398438 " clip-rule="nonzero"/></clipPath><clipPath id="affb78a9fa"><path d="M 150.0625 150.0625 L 224.9375 150.0625 L 224.9375 224.9375 L 150.0625 224.9375 Z M 150.0625 150.0625 " clip-rule="nonzero"/></clipPath><clipPath id="62ccecd474"><path d="M 187.5 150.0625 C 166.824219 150.0625 150.0625 166.824219 150.0625 187.5 C 150.0625 208.175781 166.824219 224.9375 187.5 224.9375 C 208.175781 224.9375 224.9375 208.175781 224.9375 187.5 C 224.9375 166.824219 208.175781 150.0625 187.5 150.0625 Z M 187.5 150.0625 " clip-rule="nonzero"/></clipPath></defs><g clip-path="url(#3a8f7544d3)"><g clip-path="url(#4aeda81b98)"><path fill="#ffffff" d="M 9.585938 9.585938 L 365.414062 9.585938 L 365.414062 365.414062 L 9.585938 365.414062 Z M 9.585938 9.585938 " fill-opacity="1" fill-rule="nonzero"/></g></g><g clip-path="url(#8b2ba31295)"><g clip-path="url(#bf948113da)"><path fill="#000000" d="M 37.398438 37.398438 L 112.277344 37.398438 L 112.277344 112.277344 L 37.398438 112.277344 Z M 37.398438 37.398438 " fill-opacity="1" fill-rule="nonzero"/></g></g><g clip-path="url(#7c104c2137)"><g clip-path="url(#45c06152a7)"><path fill="#000000" d="M 37.398438 262.722656 L 112.277344 262.722656 L 112.277344 337.601562 L 37.398438 337.601562 Z M 37.398438 262.722656 " fill-opacity="1" fill-rule="nonzero"/></g></g><g clip-path="url(#400810ea0d)"><g clip-path="url(#e0a1263935)"><path fill="#000000" d="M 262.722656 265.554688 L 337.601562 265.554688 L 337.601562 340.433594 L 262.722656 340.433594 Z M 262.722656 265.554688 " fill-opacity="1" fill-rule="nonzero"/></g></g><g clip-path="url(#cc6df2a696)"><g clip-path="url(#f9c9d77f6b)"><path fill="#000000" d="M 262.722656 37.398438 L 337.601562 37.398438 L 337.601562 112.277344 L 262.722656 112.277344 Z M 262.722656 37.398438 " fill-opacity="1" fill-rule="nonzero"/></g></g><g clip-path="url(#affb78a9fa)"><g clip-path="url(#62ccecd474)"><path fill="#000000" d="M 150.0625 150.0625 L 224.9375 150.0625 L 224.9375 224.9375 L 150.0625 224.9375 Z M 150.0625 150.0625 " fill-opacity="1" fill-rule="nonzero"/></g></g></svg>